# 3ds Max Wavefront OBJ Exporter v0.97b - (c)2007 guruware
# 创建的文件:27.02.2019 18:30:30

mtllib hair007.mtl

#
# object Sphere001
#

v  -7.4517 7.6287 1.0952
v  -7.3847 11.4186 0.7439
v  -11.0633 11.4186 -0.0785
v  -11.1522 7.6287 0.2680
v  0.0685 7.6287 2.0453
v  0.0910 11.4186 1.6883
v  -3.6617 11.4186 1.3334
v  -3.7065 7.6287 1.6883
v  7.6485 7.6287 2.0453
v  7.6261 11.4186 1.6883
v  3.8585 11.4186 1.8066
v  3.8585 7.6287 2.1642
v  11.4236 7.6287 1.6883
v  11.3787 11.4186 1.3334
v  -7.4517 0.0187 1.0952
v  -7.4740 3.8237 1.2123
v  -11.1819 3.8237 0.3834
v  -11.1522 0.0187 0.2680
v  0.0685 0.0187 2.0453
v  0.0610 3.8237 2.1643
v  -3.7214 3.8237 1.8066
v  -3.7065 0.0187 1.6883
v  7.6485 0.0187 2.0453
v  7.6560 3.8237 2.1642
v  3.8585 3.8237 2.2835
v  3.8585 0.0187 2.1642
v  11.4385 3.8237 1.8066
v  11.4236 0.0187 1.6883
v  -7.2733 -7.5313 0.1602
v  -7.3847 -3.7713 0.7439
v  -11.0633 -3.7713 -0.0785
v  -10.9155 -7.5313 -0.6540
v  0.1283 -7.5313 1.0952
v  0.0910 -3.7713 1.6883
v  -3.6617 -3.7713 1.3334
v  -3.5872 -7.5313 0.7439
v  7.5888 -7.5313 1.0952
v  7.6261 -3.7713 1.6883
v  3.8585 -3.7713 1.8066
v  3.8585 -7.5313 1.2123
v  11.3787 -3.7713 1.3334
v  11.3043 -7.5313 0.7439
v  -10.7094 -11.2465 -1.4569
v  -7.1180 -11.2465 -0.6541
v  -3.4833 -11.2465 -0.0785
v  0.1803 -11.2465 0.2679
v  3.8585 -11.2465 0.3834
v  7.5367 -11.2465 0.2679
v  11.2004 -11.2465 -0.0785
v  6.8708 -10.3466 13.1741
v  3.8585 -3.7863 1.8066
v  -0.3965 -8.3790 14.8988
v  -6.3340 -7.8050 12.7535
v  8.1548 0.7605 13.6799
v  -0.4433 1.3699 10.9849
v  3.9183 3.8087 2.2798
v  -9.3535 0.5772 14.1775
v  -10.7657 7.4039 14.2088
v  -2.9861 8.0497 14.6730
v  4.6952 8.8575 15.1137
# 60 vertices

vn -0.1870 0.0626 0.9804
vn -0.1859 0.1250 0.9746
vn -0.2467 0.1250 0.9610
vn -0.2482 0.0626 0.9667
vn -0.0627 0.0626 0.9961
vn -0.0623 0.1250 0.9902
vn -0.1243 0.1250 0.9843
vn -0.1251 0.0626 0.9902
vn 0.0627 0.0626 0.9961
vn 0.0623 0.1250 0.9902
vn 0.0000 0.1250 0.9922
vn 0.0000 0.0626 0.9980
vn 0.1251 0.0626 0.9902
vn 0.1244 0.1250 0.9843
vn -0.1870 -0.0626 0.9804
vn -0.1874 0.0000 0.9823
vn -0.2487 0.0000 0.9686
vn -0.2482 -0.0626 0.9667
vn -0.0627 -0.0626 0.9961
vn -0.0628 0.0000 0.9980
vn -0.1253 0.0000 0.9921
vn -0.1251 -0.0626 0.9902
vn 0.0627 -0.0626 0.9961
vn 0.0628 0.0000 0.9980
vn 0.0000 0.0000 1.0000
vn 0.0000 -0.0626 0.9980
vn 0.1253 0.0000 0.9921
vn 0.1251 -0.0626 0.9902
vn -0.1841 -0.1869 0.9650
vn -0.1859 -0.1250 0.9746
vn -0.2467 -0.1250 0.9610
vn -0.2443 -0.1869 0.9515
vn -0.0617 -0.1869 0.9804
vn -0.0623 -0.1250 0.9902
vn -0.1243 -0.1250 0.9843
vn -0.1231 -0.1869 0.9746
vn 0.0617 -0.1869 0.9804
vn 0.0623 -0.1250 0.9902
vn 0.0000 -0.1250 0.9922
vn 0.0000 -0.1869 0.9824
vn 0.1244 -0.1250 0.9843
vn 0.1231 -0.1869 0.9746
vn -0.2409 -0.2481 0.9383
vn -0.1815 -0.2481 0.9516
vn -0.1214 -0.2481 0.9611
vn -0.0608 -0.2481 0.9668
vn 0.0000 -0.2481 0.9687
vn 0.0608 -0.2481 0.9668
vn 0.1214 -0.2481 0.9611
vn 0.9457 -0.0820 0.3145
vn 0.0293 0.8691 0.4938
vn -0.9717 -0.0443 0.2320
vn 0.0044 -0.9976 0.0692
vn 0.9551 -0.0555 0.2909
vn -0.0186 0.9453 0.3256
vn -0.9750 -0.0635 0.2131
vn -0.0120 -0.9816 0.1904
vn 0.9750 -0.0186 0.2216
vn -0.0610 0.9456 0.3197
vn -0.9434 -0.1028 0.3154
vn -0.0475 -0.9674 0.2489
vn 0.9651 -0.0238 0.2608
vn 0.0160 0.9671 0.2539
vn -0.9374 -0.0218 0.3475
vn 0.0220 -0.9367 0.3495
vn 0.8974 -0.0345 0.4399
vn -0.0144 0.9647 0.2630
vn -0.9437 -0.0280 0.3296
vn -0.0318 -0.8777 0.4782
vn 0.9118 -0.0184 0.4103
vn -0.0447 0.9711 0.2345
vn -0.9918 -0.0232 0.1260
vn -0.0568 -0.9530 0.2975
vn 0.8722 0.0236 0.4886
vn -0.0517 0.9611 0.2712
vn -0.9995 0.0172 0.0256
vn -0.0480 -0.9666 0.2518
vn 0.8792 0.0299 0.4755
vn -0.0155 0.9693 0.2456
vn -0.9985 0.0112 0.0534
vn -0.0197 -0.9495 0.3130
vn 0.8967 0.0346 0.4413
vn 0.0118 0.9820 0.1883
vn -0.9980 0.0040 0.0635
vn 0.0229 -0.9312 0.3638
# 85 vertex normals

vt 0.2200 0.5200 0.0000
vt 0.2200 0.5400 0.0000
vt 0.2100 0.5400 0.0000
vt 0.2100 0.5200 0.0000
vt 0.2400 0.5200 0.0000
vt 0.2400 0.5400 0.0000
vt 0.2300 0.5400 0.0000
vt 0.2300 0.5200 0.0000
vt 0.2600 0.5200 0.0000
vt 0.2600 0.5400 0.0000
vt 0.2500 0.5400 0.0000
vt 0.2500 0.5200 0.0000
vt 0.2700 0.5200 0.0000
vt 0.2700 0.5400 0.0000
vt 0.2200 0.4800 0.0000
vt 0.2200 0.5000 0.0000
vt 0.2100 0.5000 0.0000
vt 0.2100 0.4800 0.0000
vt 0.2400 0.4800 0.0000
vt 0.2400 0.5000 0.0000
vt 0.2300 0.5000 0.0000
vt 0.2300 0.4800 0.0000
vt 0.2600 0.4800 0.0000
vt 0.2600 0.5000 0.0000
vt 0.2500 0.5000 0.0000
vt 0.2500 0.4800 0.0000
vt 0.2700 0.5000 0.0000
vt 0.2700 0.4800 0.0000
vt 0.2200 0.4400 0.0000
vt 0.2200 0.4600 0.0000
vt 0.2100 0.4600 0.0000
vt 0.2100 0.4400 0.0000
vt 0.2400 0.4400 0.0000
vt 0.2400 0.4600 0.0000
vt 0.2300 0.4600 0.0000
vt 0.2300 0.4400 0.0000
vt 0.2600 0.4400 0.0000
vt 0.2600 0.4600 0.0000
vt 0.2500 0.4600 0.0000
vt 0.2500 0.4400 0.0000
vt 0.2700 0.4600 0.0000
vt 0.2700 0.4400 0.0000
vt 0.2100 0.4200 0.0000
vt 0.2200 0.4200 0.0000
vt 0.2300 0.4200 0.0000
vt 0.2400 0.4200 0.0000
vt 0.2500 0.4200 0.0000
vt 0.2600 0.4200 0.0000
vt 0.2700 0.4200 0.0000
vt 0.5000 1.0000 0.0000
vt 0.0000 0.0000 0.0000
vt 1.0000 0.0000 0.0000
vt -0.0000 0.0000 0.0000
# 53 texture coords

o Sphere001
g Sphere001
usemtl 02___Default
s 1
f 1/1/1 2/2/2 3/3/3 
f 3/3/3 4/4/4 1/1/1 
f 5/5/5 6/6/6 7/7/7 
f 7/7/7 8/8/8 5/5/5 
f 1/1/1 8/8/8 7/7/7 
f 7/7/7 2/2/2 1/1/1 
f 9/9/9 10/10/10 11/11/11 
f 11/11/11 12/12/12 9/9/9 
f 5/5/5 12/12/12 11/11/11 
f 11/11/11 6/6/6 5/5/5 
f 9/9/9 13/13/13 14/14/14 
f 14/14/14 10/10/10 9/9/9 
f 15/15/15 16/16/16 17/17/17 
f 17/17/17 18/18/18 15/15/15 
f 1/1/1 4/4/4 17/17/17 
f 17/17/17 16/16/16 1/1/1 
f 19/19/19 20/20/20 21/21/21 
f 21/21/21 22/22/22 19/19/19 
f 5/5/5 8/8/8 21/21/21 
f 21/21/21 20/20/20 5/5/5 
f 1/1/1 16/16/16 21/21/21 
f 21/21/21 8/8/8 1/1/1 
f 15/15/15 22/22/22 21/21/21 
f 21/21/21 16/16/16 15/15/15 
f 23/23/23 24/24/24 25/25/25 
f 25/25/25 26/26/26 23/23/23 
f 9/9/9 12/12/12 25/25/25 
f 25/25/25 24/24/24 9/9/9 
f 5/5/5 20/20/20 25/25/25 
f 25/25/25 12/12/12 5/5/5 
f 19/19/19 26/26/26 25/25/25 
f 25/25/25 20/20/20 19/19/19 
f 9/9/9 24/24/24 27/27/27 
f 27/27/27 13/13/13 9/9/9 
f 23/23/23 28/28/28 27/27/27 
f 27/27/27 24/24/24 23/23/23 
f 29/29/29 30/30/30 31/31/31 
f 31/31/31 32/32/32 29/29/29 
f 15/15/15 18/18/18 31/31/31 
f 31/31/31 30/30/30 15/15/15 
f 33/33/33 34/34/34 35/35/35 
f 35/35/35 36/36/36 33/33/33 
f 19/19/19 22/22/22 35/35/35 
f 35/35/35 34/34/34 19/19/19 
f 15/15/15 30/30/30 35/35/35 
f 35/35/35 22/22/22 15/15/15 
f 29/29/29 36/36/36 35/35/35 
f 35/35/35 30/30/30 29/29/29 
f 37/37/37 38/38/38 39/39/39 
f 39/39/39 40/40/40 37/37/37 
f 23/23/23 26/26/26 39/39/39 
f 39/39/39 38/38/38 23/23/23 
f 19/19/19 34/34/34 39/39/39 
f 39/39/39 26/26/26 19/19/19 
f 33/33/33 40/40/40 39/39/39 
f 39/39/39 34/34/34 33/33/33 
f 23/23/23 38/38/38 41/41/41 
f 41/41/41 28/28/28 23/23/23 
f 37/37/37 42/42/42 41/41/41 
f 41/41/41 38/38/38 37/37/37 
f 29/29/29 32/32/32 43/43/43 
f 43/43/43 44/44/44 29/29/29 
f 33/33/33 36/36/36 45/45/45 
f 45/45/45 46/46/46 33/33/33 
f 29/29/29 44/44/44 45/45/45 
f 45/45/45 36/36/36 29/29/29 
f 37/37/37 40/40/40 47/47/47 
f 47/47/47 48/48/48 37/37/37 
f 33/33/33 46/46/46 47/47/47 
f 47/47/47 40/40/40 33/33/33 
f 37/37/37 48/48/48 49/49/49 
f 49/49/49 42/42/42 37/37/37 
s 4
f 50/50/50 49/51/50 41/52/50 
s 2
f 50/50/51 41/53/51 51/52/51 
usemtl 03___Default
s 16
f 50/50/52 51/51/52 47/52/52 
usemtl 02___Default
s 32
f 50/50/53 47/53/53 49/52/53 
s 4
f 52/50/54 47/51/54 51/52/54 
s 2
f 52/50/55 51/53/55 35/52/55 
s 16
f 52/50/56 35/51/56 45/52/56 
s 32
f 52/50/57 45/53/57 47/52/57 
usemtl 04___Default
s 4
f 53/50/58 45/51/58 35/52/58 
usemtl 02___Default
s 2
f 53/50/59 35/53/59 31/52/59 
usemtl 03___Default
s 16
f 53/50/60 31/51/60 43/52/60 
usemtl 02___Default
s 32
f 53/50/61 43/53/61 45/52/61 
s 4
f 54/50/62 41/51/62 27/52/62 
s 2
f 54/50/63 27/53/63 25/52/63 
usemtl 03___Default
s 16
f 54/50/64 25/51/64 39/52/64 
usemtl 02___Default
s 32
f 54/50/65 39/53/65 41/52/65 
usemtl 04___Default
s 4
f 55/50/66 51/51/66 56/52/66 
usemtl 02___Default
s 2
f 55/50/67 56/53/67 21/52/67 
s 16
f 55/50/68 21/51/68 35/52/68 
s 32
f 55/50/69 35/53/69 51/52/69 
s 4
f 57/50/70 35/51/70 21/52/70 
s 2
f 57/50/71 21/53/71 17/52/71 
usemtl 03___Default
s 16
f 57/50/72 17/51/72 31/52/72 
usemtl 02___Default
s 32
f 57/50/73 31/53/73 35/52/73 
usemtl 04___Default
s 4
f 58/50/74 21/51/74 7/52/74 
usemtl 02___Default
s 2
f 58/50/75 7/53/75 3/52/75 
usemtl 03___Default
s 16
f 58/50/76 3/51/76 17/52/76 
usemtl 02___Default
s 32
f 58/50/77 17/53/77 21/52/77 
usemtl 04___Default
s 4
f 59/50/78 25/51/78 11/52/78 
usemtl 02___Default
s 2
f 59/50/79 11/53/79 7/52/79 
usemtl 03___Default
s 16
f 59/50/80 7/51/80 21/52/80 
usemtl 02___Default
s 32
f 59/50/81 21/53/81 25/52/81 
usemtl 04___Default
s 4
f 60/50/82 27/51/82 14/52/82 
usemtl 02___Default
s 2
f 60/50/83 14/53/83 11/52/83 
usemtl 03___Default
s 16
f 60/50/84 11/51/84 25/52/84 
usemtl 02___Default
s 32
f 60/50/85 25/53/85 27/52/85 
# 108 faces

