# 3ds Max Wavefront OBJ Exporter v0.97b - (c)2007 guruware
# 创建的文件:24.11.2018 22:42:04

mtllib stage1-1.mtl

#
# object stage
#

v  -1.0000 0.0000 -0.0000
v  -1.0000 0.0000 2.0000
v  1.0000 0.0000 2.0000
v  1.0000 0.0000 -0.0000
v  -1.0000 1.0000 -0.0000
v  1.0000 1.0000 -0.0000
# 6 vertices

vn 0.0000 1.0000 -0.0000
vn 0.0000 0.0000 1.0000
# 2 vertex normals

vt 0.0000 0.5000 0.0000
vt 0.0000 1.0000 0.0000
vt 0.5000 1.0000 0.0000
vt 0.5000 0.5000 0.0000

vt 0.5000 0.5000 0.0000
vt 0.5000 1.0000 0.0000
vt 1.0000 1.0000 0.0000
vt 1.0000 0.5000 0.0000
# 8 texture coords
#为了贴图的整合做的修改

o stage
g stage
usemtl stage1_0_01___Default
f 1/5/1 2/6/1 3/7/1 
f 4/8/1 1/5/1 3/7/1 
f 5/1/2 1/2/2 4/3/2 
f 6/4/2 5/1/2 4/3/2 
# 4 faces

